<mxfile host="app.diagrams.net" modified="2022-06-28T07:04:22.285Z" agent="5.0 (Windows NT 10.0; Win64; x64) AppleWebKit/537.36 (KHTML, like Gecko) Chrome/103.0.0.0 Safari/537.36" etag="ASgTjQt7GWrZfNbsahvi" version="19.0.0" type="github">
  <diagram id="2Clb7JQj-5FD5byKYfWn" name="第 1 页">
    <mxGraphModel dx="2782" dy="895" grid="1" gridSize="10" guides="1" tooltips="1" connect="1" arrows="1" fold="1" page="1" pageScale="1" pageWidth="827" pageHeight="1169" math="0" shadow="0">
      <root>
        <mxCell id="0" />
        <mxCell id="1" parent="0" />
        <mxCell id="WCC-fT7kl5r3pAx_GbJC-1" value="云播中台" style="shape=umlLifeline;perimeter=lifelinePerimeter;whiteSpace=wrap;html=1;container=1;collapsible=0;recursiveResize=0;outlineConnect=0;" vertex="1" parent="1">
          <mxGeometry x="140" y="120" width="100" height="760" as="geometry" />
        </mxCell>
        <mxCell id="WCC-fT7kl5r3pAx_GbJC-17" value="" style="html=1;points=[];perimeter=orthogonalPerimeter;" vertex="1" parent="WCC-fT7kl5r3pAx_GbJC-1">
          <mxGeometry x="45" y="620" width="10" height="40" as="geometry" />
        </mxCell>
        <mxCell id="WCC-fT7kl5r3pAx_GbJC-18" value="告警数据入库记录" style="edgeStyle=orthogonalEdgeStyle;html=1;align=left;spacingLeft=2;endArrow=block;rounded=0;entryX=1;entryY=0;" edge="1" target="WCC-fT7kl5r3pAx_GbJC-17" parent="WCC-fT7kl5r3pAx_GbJC-1">
          <mxGeometry relative="1" as="geometry">
            <mxPoint x="50" y="600" as="sourcePoint" />
            <Array as="points">
              <mxPoint x="80" y="600" />
            </Array>
          </mxGeometry>
        </mxCell>
        <mxCell id="WCC-fT7kl5r3pAx_GbJC-19" value="推送数据" style="html=1;verticalAlign=bottom;endArrow=block;rounded=0;" edge="1" parent="WCC-fT7kl5r3pAx_GbJC-1">
          <mxGeometry width="80" relative="1" as="geometry">
            <mxPoint x="49" y="716" as="sourcePoint" />
            <mxPoint x="-161" y="716" as="targetPoint" />
          </mxGeometry>
        </mxCell>
        <mxCell id="WCC-fT7kl5r3pAx_GbJC-2" value="视联网" style="shape=umlLifeline;perimeter=lifelinePerimeter;whiteSpace=wrap;html=1;container=1;collapsible=0;recursiveResize=0;outlineConnect=0;" vertex="1" parent="1">
          <mxGeometry x="360" y="120" width="100" height="760" as="geometry" />
        </mxCell>
        <mxCell id="WCC-fT7kl5r3pAx_GbJC-13" value="" style="html=1;verticalAlign=bottom;endArrow=open;dashed=1;endSize=8;rounded=0;" edge="1" parent="WCC-fT7kl5r3pAx_GbJC-2" source="WCC-fT7kl5r3pAx_GbJC-11">
          <mxGeometry relative="1" as="geometry">
            <mxPoint x="129" y="336" as="sourcePoint" />
            <mxPoint x="49" y="336" as="targetPoint" />
          </mxGeometry>
        </mxCell>
        <mxCell id="WCC-fT7kl5r3pAx_GbJC-15" value="推送数据" style="html=1;verticalAlign=bottom;endArrow=block;rounded=0;" edge="1" parent="WCC-fT7kl5r3pAx_GbJC-2" target="WCC-fT7kl5r3pAx_GbJC-1">
          <mxGeometry width="80" relative="1" as="geometry">
            <mxPoint x="50" y="540" as="sourcePoint" />
            <mxPoint x="-10" y="540" as="targetPoint" />
          </mxGeometry>
        </mxCell>
        <mxCell id="WCC-fT7kl5r3pAx_GbJC-4" value="数字乡村" style="shape=umlLifeline;perimeter=lifelinePerimeter;whiteSpace=wrap;html=1;container=1;collapsible=0;recursiveResize=0;outlineConnect=0;" vertex="1" parent="1">
          <mxGeometry x="-70" y="120" width="100" height="760" as="geometry" />
        </mxCell>
        <mxCell id="WCC-fT7kl5r3pAx_GbJC-6" value="返回订阅成功" style="html=1;verticalAlign=bottom;endArrow=open;dashed=1;endSize=8;rounded=0;" edge="1" parent="WCC-fT7kl5r3pAx_GbJC-4" source="WCC-fT7kl5r3pAx_GbJC-1">
          <mxGeometry relative="1" as="geometry">
            <mxPoint x="130" y="140" as="sourcePoint" />
            <mxPoint x="50" y="140" as="targetPoint" />
          </mxGeometry>
        </mxCell>
        <mxCell id="WCC-fT7kl5r3pAx_GbJC-7" value="开启设备的AI能力" style="html=1;verticalAlign=bottom;endArrow=block;rounded=0;" edge="1" parent="WCC-fT7kl5r3pAx_GbJC-4" target="WCC-fT7kl5r3pAx_GbJC-1">
          <mxGeometry width="80" relative="1" as="geometry">
            <mxPoint x="50" y="200" as="sourcePoint" />
            <mxPoint x="130" y="200" as="targetPoint" />
          </mxGeometry>
        </mxCell>
        <mxCell id="WCC-fT7kl5r3pAx_GbJC-5" value="订阅AI事件类型，确定回调URL" style="html=1;verticalAlign=bottom;endArrow=block;rounded=0;" edge="1" parent="1">
          <mxGeometry width="80" relative="1" as="geometry">
            <mxPoint x="-20" y="215" as="sourcePoint" />
            <mxPoint x="189.50000000000045" y="215" as="targetPoint" />
          </mxGeometry>
        </mxCell>
        <mxCell id="WCC-fT7kl5r3pAx_GbJC-8" value="订阅设备的AI能力" style="html=1;verticalAlign=bottom;endArrow=block;rounded=0;" edge="1" parent="1" target="WCC-fT7kl5r3pAx_GbJC-2">
          <mxGeometry width="80" relative="1" as="geometry">
            <mxPoint x="190" y="370" as="sourcePoint" />
            <mxPoint x="270" y="370" as="targetPoint" />
          </mxGeometry>
        </mxCell>
        <mxCell id="WCC-fT7kl5r3pAx_GbJC-9" value="" style="html=1;verticalAlign=bottom;endArrow=open;dashed=1;endSize=8;rounded=0;" edge="1" parent="1">
          <mxGeometry relative="1" as="geometry">
            <mxPoint x="409" y="490" as="sourcePoint" />
            <mxPoint x="189.5" y="490" as="targetPoint" />
          </mxGeometry>
        </mxCell>
        <mxCell id="WCC-fT7kl5r3pAx_GbJC-10" value="返回开启成功" style="html=1;verticalAlign=bottom;endArrow=open;dashed=1;endSize=8;rounded=0;" edge="1" parent="1">
          <mxGeometry relative="1" as="geometry">
            <mxPoint x="190" y="538" as="sourcePoint" />
            <mxPoint x="-20.5" y="538" as="targetPoint" />
          </mxGeometry>
        </mxCell>
        <mxCell id="WCC-fT7kl5r3pAx_GbJC-11" value="设备" style="shape=umlLifeline;perimeter=lifelinePerimeter;whiteSpace=wrap;html=1;container=1;collapsible=0;recursiveResize=0;outlineConnect=0;" vertex="1" parent="1">
          <mxGeometry x="590" y="120" width="100" height="760" as="geometry" />
        </mxCell>
        <mxCell id="WCC-fT7kl5r3pAx_GbJC-12" value="开启设备AI算法" style="html=1;verticalAlign=bottom;endArrow=block;rounded=0;" edge="1" parent="1">
          <mxGeometry width="80" relative="1" as="geometry">
            <mxPoint x="410" y="412" as="sourcePoint" />
            <mxPoint x="639.5" y="412" as="targetPoint" />
          </mxGeometry>
        </mxCell>
        <mxCell id="WCC-fT7kl5r3pAx_GbJC-14" value="触发AI告警" style="html=1;verticalAlign=bottom;endArrow=block;rounded=0;" edge="1" parent="1">
          <mxGeometry width="80" relative="1" as="geometry">
            <mxPoint x="639.5" y="606" as="sourcePoint" />
            <mxPoint x="409.5" y="606" as="targetPoint" />
          </mxGeometry>
        </mxCell>
      </root>
    </mxGraphModel>
  </diagram>
</mxfile>
